<svg width="36" height="36" viewBox="0 0 36 36" fill="none" xmlns="http://www.w3.org/2000/svg">
<path d="M25.875 12.9291V7.87503C25.875 7.56397 25.623 7.31253 25.3125 7.31253H21.9375V5.39497C21.9999 5.40003 22.059 5.4096 22.1243 5.4096C22.3824 5.4096 22.6631 5.37022 22.9607 5.29035C23.6391 5.10922 24.3141 4.74247 24.7213 4.33522C24.9413 4.11529 24.9413 3.75979 24.7213 3.53985L23.9338 2.75235L24.5897 2.08016L23.7842 1.29491L23.1379 1.95697L22.3346 1.15372C22.1147 0.933785 21.7592 0.933785 21.5392 1.15372C21.1314 1.56154 20.7658 2.23597 20.5841 2.91435C20.3681 3.72266 20.4519 4.4016 20.8125 4.85103V7.31253H16.875V1.68754C16.875 1.37647 16.623 1.12504 16.3125 1.12504H9.5625C9.252 1.12504 9 1.37647 9 1.68754V13.113C6.30169 13.6024 1.125 14.8759 1.125 17.4375V21.9375C1.125 23.3623 2.19038 24.5436 3.56625 24.7258L6.80119 31.7357C6.88894 31.9253 7.07344 32.0507 7.28156 32.062C7.49587 32.0743 7.68713 31.968 7.79456 31.7897L10.5401 27.2132L12.9656 34.4908C13.0432 34.7203 13.2576 34.875 13.5 34.875C13.7424 34.875 13.9567 34.7203 14.0338 34.4903L16.5583 26.9162L20.9773 31.3347C21.0864 31.4438 21.2394 31.5028 21.3913 31.4995C21.546 31.4944 21.6923 31.4263 21.7952 31.3105L25.7434 26.869L28.1841 31.7509C28.2808 31.9444 28.4957 32.076 28.6959 32.062C28.9119 32.0586 29.1071 31.932 29.1983 31.7352L32.4332 24.7253C33.8096 24.5436 34.875 23.3623 34.875 21.9375V17.4375C34.875 14.6464 28.9277 13.3898 25.875 12.9291ZM21.6714 3.20516C21.7446 2.93066 21.8621 2.64941 21.9994 2.40866L23.4669 3.87566C23.2262 4.01235 22.9449 4.12991 22.6699 4.2036C22.2227 4.32341 21.8441 4.30935 21.7046 4.16985C21.5646 4.03091 21.5516 3.65179 21.6714 3.20516ZM24.75 8.43753V18H16.875V8.43753H24.75ZM10.125 2.25004H15.75V18H14.625V14.0625C14.625 13.7515 14.373 13.5 14.0625 13.5H11.8125C11.502 13.5 11.25 13.7515 11.25 14.0625V18H10.125V2.25004ZM13.5 18H12.375V14.625H13.5V18ZM9 14.256V18.5625C9 18.8736 9.252 19.125 9.5625 19.125H25.3125C25.623 19.125 25.875 18.8736 25.875 18.5625V14.0665C31.2795 14.8984 33.75 16.3778 33.75 17.4375C33.75 19.0817 27.7582 21.375 18 21.375C8.24175 21.375 2.25 19.0817 2.25 17.4375C2.25 16.4886 4.36781 15.1172 9 14.256ZM33.75 21.9375C33.75 22.8679 32.9929 23.625 32.0625 23.625C31.8431 23.625 31.6434 23.7527 31.5517 23.9518L28.6673 30.2012L26.3784 25.623C26.2952 25.456 26.1337 25.3412 25.9492 25.317C25.7647 25.2928 25.5791 25.3615 25.4548 25.501L21.3514 30.1174L16.7108 25.4768C16.5729 25.339 16.3727 25.2833 16.1837 25.3266C15.9941 25.3716 15.8411 25.5111 15.7793 25.6962L13.5 32.5339L11.2213 25.6973C11.1516 25.4892 10.9671 25.3401 10.7488 25.3159C10.7286 25.3137 10.7077 25.3125 10.6875 25.3125C10.4912 25.3125 10.3078 25.4155 10.2054 25.5853L7.37775 30.2985L4.44825 23.9518C4.35656 23.7527 4.15687 23.625 3.9375 23.625C3.00712 23.625 2.25 22.8679 2.25 21.9375V19.3545C2.25394 19.3573 2.259 19.3602 2.26237 19.3635C2.40525 19.4755 2.56388 19.584 2.73094 19.6903C2.77144 19.7162 2.8125 19.7415 2.85469 19.7674C3.02737 19.8726 3.20794 19.9755 3.40313 20.0751C3.41888 20.083 3.43631 20.0908 3.45206 20.0987C3.63825 20.1921 3.83513 20.2821 4.03988 20.3704C4.0905 20.3923 4.14 20.4143 4.19175 20.4357C4.41 20.5268 4.63725 20.6151 4.87406 20.7C4.91625 20.7152 4.96013 20.7293 5.00288 20.7445C5.21831 20.8198 5.4405 20.893 5.67 20.9633C5.72119 20.979 5.77069 20.9953 5.82188 21.0105C6.08063 21.0882 6.34781 21.163 6.62175 21.2344C6.68194 21.2502 6.74381 21.2653 6.80512 21.2811C7.0605 21.3458 7.32094 21.4088 7.58812 21.4684C7.62469 21.4768 7.66069 21.4853 7.69725 21.4937C7.99144 21.5584 8.2935 21.6197 8.60006 21.6782C8.6715 21.6917 8.7435 21.7052 8.8155 21.7187C9.12769 21.7767 9.44325 21.8323 9.76612 21.8835C9.7785 21.8858 9.79144 21.8875 9.80381 21.8892C10.1194 21.9392 10.4406 21.9853 10.7646 22.0292C10.8382 22.0393 10.9119 22.0495 10.9862 22.059C11.3164 22.1023 11.6494 22.1428 11.9869 22.1794C12.0397 22.185 12.0937 22.1901 12.1472 22.1957C12.4521 22.2278 12.7592 22.2576 13.068 22.2846C13.1372 22.2908 13.2058 22.297 13.2756 22.3032C13.6187 22.3318 13.9641 22.3577 14.3111 22.3802C14.3826 22.3847 14.454 22.3887 14.5254 22.3932C14.8449 22.4128 15.1656 22.4297 15.4873 22.4438C15.534 22.446 15.5807 22.4483 15.6279 22.4505C15.9795 22.4652 16.3322 22.4758 16.6843 22.4837C16.7659 22.4854 16.8469 22.4871 16.9284 22.4888C17.2856 22.4955 17.6434 22.5 18 22.5C18.3566 22.5 18.7144 22.4955 19.0727 22.4888C19.1543 22.4871 19.2352 22.486 19.3168 22.4837C19.6689 22.4758 20.0216 22.4652 20.3732 22.4505C20.4199 22.4488 20.4666 22.446 20.5138 22.4438C20.8356 22.4297 21.1556 22.4128 21.4757 22.3932C21.5471 22.3887 21.6186 22.3847 21.69 22.3802C22.0371 22.3577 22.3824 22.3318 22.7256 22.3032C22.7948 22.2975 22.8639 22.2908 22.9331 22.2846C23.2425 22.2576 23.5496 22.2278 23.8539 22.1957C23.9074 22.1901 23.9608 22.185 24.0143 22.1794C24.3512 22.1428 24.6848 22.1023 25.0149 22.059C25.0892 22.0495 25.1629 22.0393 25.2366 22.0292C25.5606 21.9853 25.8818 21.9392 26.1973 21.8892C26.2097 21.8875 26.2226 21.8852 26.235 21.8835C26.5579 21.8323 26.8734 21.7761 27.1856 21.7187C27.2576 21.7052 27.3296 21.6923 27.4011 21.6782C27.7076 21.6197 28.0097 21.5584 28.3039 21.4937C28.341 21.4853 28.3764 21.4768 28.413 21.4684C28.6802 21.4088 28.9406 21.3458 29.196 21.2811C29.2573 21.2653 29.3186 21.2502 29.3794 21.2344C29.6533 21.1624 29.9205 21.0882 30.1793 21.0105C30.231 20.9953 30.2805 20.979 30.3311 20.9633C30.5601 20.8924 30.7828 20.8198 30.9983 20.7445C31.041 20.7293 31.0849 20.7152 31.1271 20.7C31.3639 20.6151 31.5906 20.5268 31.8094 20.4357C31.8606 20.4143 31.9106 20.3923 31.9612 20.3704C32.1654 20.2821 32.3629 20.1921 32.5491 20.0987C32.5648 20.0908 32.5822 20.083 32.598 20.0751C32.7932 19.9761 32.9737 19.8726 33.1464 19.7674C33.1886 19.7421 33.2297 19.7162 33.2702 19.6903C33.4372 19.584 33.5959 19.4755 33.7387 19.3635C33.7427 19.3607 33.7477 19.3579 33.7511 19.3545V21.9375H33.75Z" fill="#1E398F"/>
<path d="M12.375 3.375H11.25V4.5H12.375V3.375Z" fill="#1E398F"/>
<path d="M14.625 3.375H13.5V4.5H14.625V3.375Z" fill="#1E398F"/>
<path d="M12.375 5.625H11.25V6.75H12.375V5.625Z" fill="#1E398F"/>
<path d="M14.625 5.625H13.5V6.75H14.625V5.625Z" fill="#1E398F"/>
<path d="M12.375 7.875H11.25V9H12.375V7.875Z" fill="#1E398F"/>
<path d="M14.625 7.875H13.5V9H14.625V7.875Z" fill="#1E398F"/>
<path d="M12.375 10.125H11.25V11.25H12.375V10.125Z" fill="#1E398F"/>
<path d="M14.625 10.125H13.5V11.25H14.625V10.125Z" fill="#1E398F"/>
<path d="M19.125 9.5625H18V10.6875H19.125V9.5625Z" fill="#1E398F"/>
<path d="M21.375 9.5625H20.25V10.6875H21.375V9.5625Z" fill="#1E398F"/>
<path d="M23.625 9.5625H22.5V10.6875H23.625V9.5625Z" fill="#1E398F"/>
<path d="M19.125 11.8125H18V12.9375H19.125V11.8125Z" fill="#1E398F"/>
<path d="M21.375 11.8125H20.25V12.9375H21.375V11.8125Z" fill="#1E398F"/>
<path d="M23.625 11.8125H22.5V12.9375H23.625V11.8125Z" fill="#1E398F"/>
<path d="M19.125 14.0625H18V15.1875H19.125V14.0625Z" fill="#1E398F"/>
<path d="M21.375 14.0625H20.25V15.1875H21.375V14.0625Z" fill="#1E398F"/>
<path d="M23.625 14.0625H22.5V15.1875H23.625V14.0625Z" fill="#1E398F"/>
<path d="M1.68749 6.18744H7.31249C7.49924 6.18744 7.67362 6.09463 7.77824 5.9405C7.88287 5.78638 7.90424 5.5895 7.83506 5.41625L7.09481 3.56507C6.76856 2.75 5.86012 2.32757 5.02706 2.60657L4.66987 2.72525C4.33406 2.43557 3.88968 2.28538 3.43462 2.33038C2.82656 2.38607 2.29949 2.76913 2.05931 3.3305L1.17056 5.40388C1.09574 5.57713 1.11374 5.77682 1.21781 5.93488C1.32187 6.09238 1.49849 6.18744 1.68749 6.18744ZM3.09318 3.77375C3.20681 3.50825 3.44193 3.45875 3.53756 3.45032C3.63262 3.44357 3.87224 3.4475 4.03199 3.68713C4.17262 3.89863 4.43756 3.98919 4.67774 3.90875L5.38256 3.67307C5.65031 3.58307 5.94506 3.71975 6.04968 3.983L6.48168 5.06244H2.54081L3.09318 3.77375Z" fill="#1E398F"/>
<path d="M34.5977 6.62459C34.2962 6.02159 33.7494 5.57665 33.0975 5.40283C32.5789 5.26502 32.0338 5.31002 31.5501 5.52152L31.1754 5.24084C30.6439 4.84146 29.9649 4.68508 29.3119 4.81446C28.6594 4.94215 28.089 5.34208 27.7464 5.91246L27.0804 7.02283C27.0276 7.11058 27 7.21015 27 7.31252V8.43752C27 8.74858 27.252 9.00002 27.5625 9.00002H34.3125C34.623 9.00002 34.875 8.74858 34.875 8.43752V7.31252C34.875 7.22533 34.8548 7.13871 34.8159 7.06109L34.5977 6.62459ZM33.75 7.87502H28.125V7.46834L28.7111 6.49184C28.8922 6.18977 29.1825 5.98671 29.5284 5.91808C29.8738 5.85171 30.2192 5.9299 30.501 6.14083L31.1625 6.63752C31.3532 6.78096 31.6136 6.78883 31.8122 6.65552C32.1053 6.45977 32.4686 6.40127 32.8084 6.49071C33.1487 6.58071 33.4339 6.81302 33.5914 7.12802L33.75 7.44527V7.87502Z" fill="#1E398F"/>
</svg>
