<svg width="36" height="36" viewBox="0 0 36 36" fill="none" xmlns="http://www.w3.org/2000/svg">
<path d="M35.4375 0H0.5625C0.252 0 0 0.252 0 0.5625V19.6875V25.875C0 26.1855 0.252 26.4375 0.5625 26.4375H2.25V35.4375C2.25 35.748 2.502 36 2.8125 36H5.625C5.9355 36 6.1875 35.748 6.1875 35.4375V29.3411L6.76125 31.0624L7.317 35.5073C7.35188 35.7891 7.5915 36 7.875 36H10.6875C10.8478 36 11.0003 35.9319 11.1066 35.8127C11.2134 35.6934 11.2641 35.5342 11.2466 35.3756L10.6841 30.3131C10.6802 30.2737 10.6717 30.2349 10.6588 30.1972L9 25.2214V23.625H16.875V27C16.875 27.9304 17.6321 28.6875 18.5625 28.6875H22.5V29.25C22.5 29.9824 22.9719 30.6011 23.625 30.834V32.625C23.625 32.9355 23.877 33.1875 24.1875 33.1875H24.75V35.4375C24.75 35.748 25.002 36 25.3125 36H27.5625C27.873 36 28.125 35.748 28.125 35.4375V33.1875H28.6875C28.998 33.1875 29.25 32.9355 29.25 32.625V30.834C29.9031 30.6011 30.375 29.9824 30.375 29.25V28.6875H34.3125C35.2429 28.6875 36 27.9304 36 27V18V0.5625C36 0.252 35.748 0 35.4375 0ZM9.57262 30.4965L10.0592 34.875H8.37169L7.8705 30.8677C7.866 30.8312 7.85813 30.7946 7.84631 30.7597L6.15881 25.6972C6.07163 25.4362 5.80725 25.2771 5.535 25.3198C5.26219 25.3637 5.0625 25.5994 5.0625 25.875V34.875H3.375V19.6875H2.25V25.3125H1.125V19.6875C1.125 18.7571 1.88212 18 2.8125 18H11.25C11.3991 18 11.5425 17.9409 11.6477 17.8352L15.1875 14.2954L16.0796 15.1875L12.1421 19.125H8.4375C8.127 19.125 7.875 19.377 7.875 19.6875V25.3125C7.875 25.3727 7.88456 25.4329 7.90369 25.4903L9.57262 30.4965ZM3.375 14.625C3.375 13.3841 4.38412 12.375 5.625 12.375C6.86588 12.375 7.875 13.3841 7.875 14.625C7.875 15.2066 7.64719 15.7326 7.28325 16.1325C6.96206 15.9345 6.75 15.5829 6.75 15.1875H5.625C5.625 15.7939 5.87306 16.3564 6.27919 16.7664C6.07106 16.8306 5.85394 16.875 5.625 16.875C4.38412 16.875 3.375 15.8659 3.375 14.625ZM9 22.5V20.25H12.375C12.5241 20.25 12.6675 20.1909 12.7727 20.0852L17.2727 15.5852C17.4926 15.3653 17.4926 15.0097 17.2727 14.7898L15.5852 13.1023C15.3653 12.8824 15.0097 12.8824 14.7898 13.1023L11.0171 16.875H8.13375C8.67038 16.2771 9 15.4901 9 14.625C9 12.7637 7.48631 11.25 5.625 11.25C3.76369 11.25 2.25 12.7637 2.25 14.625C2.25 15.4901 2.57962 16.2771 3.11625 16.875H2.8125C2.17688 16.875 1.59637 17.0949 1.125 17.4521V1.125H34.875V16.416C34.6984 16.353 34.5105 16.3125 34.3125 16.3125H30.375V15.75C30.375 14.8196 29.6179 14.0625 28.6875 14.0625H24.1875C23.2571 14.0625 22.5 14.8196 22.5 15.75V16.3125H18.5625C17.6321 16.3125 16.875 17.0696 16.875 18V22.5H9ZM23.625 22.5C23.625 21.8796 24.1296 21.375 24.75 21.375C25.3704 21.375 25.875 21.8796 25.875 22.5C25.875 23.1204 25.3704 23.625 24.75 23.625C24.1296 23.625 23.625 23.1204 23.625 22.5ZM23.625 24.75H28.125C28.2741 24.75 28.4175 24.6909 28.5227 24.5852L30.375 22.7329L30.7046 23.0625L28.4546 25.3125H27C26.6895 25.3125 26.4375 25.5645 26.4375 25.875V27.5625H22.5V25.875C22.5 25.2546 23.0046 24.75 23.625 24.75ZM27.5625 26.4375H28.6875C28.8366 26.4375 28.98 26.3784 29.0852 26.2727L31.8977 23.4602C32.1176 23.2403 32.1176 22.8847 31.8977 22.6648L30.7727 21.5398C30.5528 21.3199 30.1972 21.3199 29.9773 21.5398L27.8921 23.625H26.6873C26.8808 23.2926 27 22.9117 27 22.5C27 21.2591 25.9909 20.25 24.75 20.25C23.5091 20.25 22.5 21.2591 22.5 22.5C22.5 22.9663 22.6429 23.4 22.887 23.7594C22.0095 24.0671 21.375 24.894 21.375 25.875V27.5625H20.25V17.4375H32.625V27.5625H27.5625V26.4375ZM29.25 16.3125H23.625V15.75C23.625 15.4401 23.8776 15.1875 24.1875 15.1875H28.6875C28.9974 15.1875 29.25 15.4401 29.25 15.75V16.3125ZM18 27V18C18 17.6901 18.2526 17.4375 18.5625 17.4375H19.125V27.5625H18.5625C18.2526 27.5625 18 27.3099 18 27ZM27 34.875H25.875V33.1875H27V34.875ZM24.75 32.0625V30.9375H28.125V32.0625H24.75ZM29.25 29.25C29.25 29.5599 28.9974 29.8125 28.6875 29.8125H24.1875C23.8776 29.8125 23.625 29.5599 23.625 29.25V28.6875H29.25V29.25ZM34.875 27C34.875 27.3099 34.6224 27.5625 34.3125 27.5625H33.75V17.4375H34.3125C34.6224 17.4375 34.875 17.6901 34.875 18V27Z" fill="#1E398F"/>
<path d="M14.5395 3.07687C14.3336 2.74781 13.7914 2.74781 13.5855 3.07687L10.773 7.57688C10.665 7.75013 10.6588 7.96894 10.7584 8.14781C10.8579 8.32669 11.0452 8.4375 11.25 8.4375H16.875C17.0797 8.4375 17.2676 8.32669 17.3672 8.14781C17.4667 7.96894 17.4606 7.75013 17.3526 7.57688L14.5395 3.07687ZM12.2647 7.3125L14.0625 4.43644L15.8602 7.3125H12.2647Z" fill="#1E398F"/>
<path d="M19.6875 8.4375H24.1875C24.498 8.4375 24.75 8.1855 24.75 7.875V3.375C24.75 3.0645 24.498 2.8125 24.1875 2.8125H19.6875C19.377 2.8125 19.125 3.0645 19.125 3.375V7.875C19.125 8.1855 19.377 8.4375 19.6875 8.4375ZM20.25 3.9375H23.625V7.3125H20.25V3.9375Z" fill="#1E398F"/>
<path d="M29.25 8.4375C30.8008 8.4375 32.0625 7.17581 32.0625 5.625C32.0625 4.07419 30.8008 2.8125 29.25 2.8125C27.6992 2.8125 26.4375 4.07419 26.4375 5.625C26.4375 7.17581 27.6992 8.4375 29.25 8.4375ZM29.25 3.9375C30.1804 3.9375 30.9375 4.69462 30.9375 5.625C30.9375 6.55538 30.1804 7.3125 29.25 7.3125C28.3196 7.3125 27.5625 6.55538 27.5625 5.625C27.5625 4.69462 28.3196 3.9375 29.25 3.9375Z" fill="#1E398F"/>
<path d="M29.8125 9.5625H18V10.6875H29.8125V9.5625Z" fill="#1E398F"/>
<path d="M21.9375 11.8125H18V12.9375H21.9375V11.8125Z" fill="#1E398F"/>
<path d="M27.5625 11.8125H23.625V12.9375H27.5625V11.8125Z" fill="#1E398F"/>
<path d="M29.8125 11.8125H28.6875V12.9375H29.8125V11.8125Z" fill="#1E398F"/>
<path d="M31.5 18.5625H30.375V19.6875H31.5V18.5625Z" fill="#1E398F"/>
<path d="M29.25 18.5625H28.125V19.6875H29.25V18.5625Z" fill="#1E398F"/>
<path d="M27 18.5625H25.875V19.6875H27V18.5625Z" fill="#1E398F"/>
</svg>
