<svg width="36" height="36" viewBox="0 0 36 36" fill="none" xmlns="http://www.w3.org/2000/svg">
<path d="M36 11.8125V3.9375C36 2.38669 34.7383 1.125 33.1875 1.125H17.4375C15.8867 1.125 14.625 2.38669 14.625 3.9375V11.8125C14.625 13.3633 15.8867 14.625 17.4375 14.625H24.9317L25.7979 16.7906L24.4688 18.5625H16.875V18C16.875 17.0696 16.1179 16.3125 15.1875 16.3125H13.5V15.75C13.5 15.4395 13.248 15.1875 12.9375 15.1875H11.8125V10.6875C11.8125 9.1845 10.6239 7.96275 9.13838 7.88906C10.0856 7.06331 10.6875 5.85169 10.6875 4.5C10.6875 2.01881 8.66869 0 6.1875 0C3.70631 0 1.6875 2.01881 1.6875 4.5C1.6875 5.84438 2.28319 7.04981 3.22087 7.875H2.8125C1.26169 7.875 0 9.13669 0 10.6875V16.875C0 18.2329 0.968062 19.3691 2.25 19.6307V35.4375C2.25 35.748 2.502 36 2.8125 36H6.75C7.0605 36 7.3125 35.748 7.3125 35.4375V34.3254C7.31812 34.5561 7.4655 34.7687 7.69725 34.8458L11.0723 35.9708C11.1313 35.9904 11.1909 36 11.25 36C11.4784 36 11.6921 35.8599 11.7765 35.6349L14.3646 28.7376C14.9181 27.252 14.7431 25.5707 13.8954 24.2392L12.4279 21.9375H15.75V35.4375C15.75 35.748 16.002 36 16.3125 36H18.5625C18.873 36 19.125 35.748 19.125 35.4375V21.9375H30.375V35.4375C30.375 35.748 30.627 36 30.9375 36H33.1875C33.498 36 33.75 35.748 33.75 35.4375V21.9375H35.4375C35.748 21.9375 36 21.6855 36 21.375V19.125C36 18.8145 35.748 18.5625 35.4375 18.5625H31.5L32.5125 17.2125C32.6301 17.0556 32.6576 16.8486 32.5851 16.6658L31.7683 14.625H33.1875C34.7383 14.625 36 13.3633 36 11.8125ZM17.4375 2.25H33.1875C34.1179 2.25 34.875 3.00712 34.875 3.9375V10.125H15.75V3.9375C15.75 3.00712 16.5071 2.25 17.4375 2.25ZM15.75 11.8125V11.25H34.875V11.8125C34.875 12.7429 34.1179 13.5 33.1875 13.5H17.4375C16.5071 13.5 15.75 12.7429 15.75 11.8125ZM15.1875 17.4375C15.4974 17.4375 15.75 17.6901 15.75 18V18.5625H13.5V17.4375H15.1875ZM2.8125 4.5C2.8125 2.63869 4.32619 1.125 6.1875 1.125C8.04881 1.125 9.5625 2.63869 9.5625 4.5C9.5625 6.36131 8.04881 7.875 6.1875 7.875C4.32619 7.875 2.8125 6.36131 2.8125 4.5ZM1.125 16.875V10.6875C1.125 9.75712 1.88212 9 2.8125 9H9C9.93038 9 10.6875 9.75712 10.6875 10.6875V15.1875H4.5V12.375H3.375V15.75C3.375 16.0605 3.627 16.3125 3.9375 16.3125H12.375V16.875V18.5625H2.8125C1.88212 18.5625 1.125 17.8054 1.125 16.875ZM7.34119 34.1347C7.32319 34.1893 7.31363 34.245 7.3125 34.2996V24.3579L9.504 27.6457L7.34119 34.1347ZM12.9471 24.8439C13.6058 25.8789 13.7419 27.1879 13.311 28.3438L10.9136 34.7321L8.58656 33.9564L10.6588 27.7403C10.7139 27.5754 10.6898 27.3949 10.593 27.2503L7.218 22.1878C7.08019 21.9814 6.82369 21.8897 6.58688 21.9617C6.35006 22.0331 6.1875 22.2525 6.1875 22.5V34.875H3.375V19.6875H8.4375V21.375C8.4375 21.6855 8.6895 21.9375 9 21.9375H11.0936L12.9471 24.8439ZM18 34.875H16.875V21.9375H18V34.875ZM32.625 34.875H31.5V21.9375H32.625V34.875ZM34.875 20.8125H9.5625V19.6875H34.875V20.8125ZM31.4229 16.7906L30.0938 18.5625H25.875L26.8875 17.2125C27.0051 17.0556 27.0326 16.8486 26.9601 16.6658L26.1433 14.625H30.5561L31.4229 16.7906Z" fill="#1E398F"/>
</svg>
