<svg width="36" height="36" viewBox="0 0 36 36" fill="none" xmlns="http://www.w3.org/2000/svg">
<path d="M32.0625 6.85519V6.75C32.0625 5.50912 31.0534 4.5 29.8125 4.5C28.7409 4.5 27.8454 5.25431 27.6204 6.25838L21.366 7.22081C21.3171 6.33375 20.5864 5.625 19.6875 5.625C18.7571 5.625 18 6.38212 18 7.3125V7.96556L8.90213 9.57094C8.63381 9.61875 8.4375 9.85219 8.4375 10.125V11.8125H4.3965C4.16362 11.1594 3.54488 10.6875 2.8125 10.6875C1.88212 10.6875 1.125 11.4446 1.125 12.375V16.875C1.125 17.8054 1.88212 18.5625 2.8125 18.5625C3.54488 18.5625 4.16362 18.0906 4.3965 17.4375H8.4375V19.125C8.4375 19.3978 8.63381 19.6313 8.90213 19.6791L12.4999 20.3141L5.69813 32.3482L6.67687 32.9018L12.9375 21.8256V34.875H14.0625V21.8256L20.3231 32.9018L21.3019 32.3482L14.7218 20.7062L18 21.2844V21.9375C18 22.8679 18.7571 23.625 19.6875 23.625C20.5864 23.625 21.3171 22.9162 21.366 22.0292L27.6204 22.9916C27.8454 23.9957 28.7409 24.75 29.8125 24.75C31.0534 24.75 32.0625 23.7409 32.0625 22.5V22.3948C33.8923 21.7637 34.875 18.1001 34.875 14.625C34.875 11.1499 33.8923 7.48631 32.0625 6.85519ZM2.8125 17.4375C2.502 17.4375 2.25 17.1849 2.25 16.875V12.375C2.25 12.0651 2.502 11.8125 2.8125 11.8125C3.123 11.8125 3.375 12.0651 3.375 12.375V16.875C3.375 17.1849 3.123 17.4375 2.8125 17.4375ZM4.5 16.3125V12.9375H8.4375V16.3125H4.5ZM13.5 16.3125C12.5696 16.3125 11.8125 15.5554 11.8125 14.625C11.8125 13.6946 12.5696 12.9375 13.5 12.9375C14.4304 12.9375 15.1875 13.6946 15.1875 14.625C15.1875 15.5554 14.4304 16.3125 13.5 16.3125ZM14.0625 19.4473V17.3807C15.3444 17.1191 16.3125 15.9834 16.3125 14.625C16.3125 13.0742 15.0508 11.8125 13.5 11.8125C11.9492 11.8125 10.6875 13.0742 10.6875 14.625C10.6875 15.9829 11.6556 17.1191 12.9375 17.3807V19.2488L9.5625 18.6531V16.875V12.375V10.5969L18 9.108V20.142L14.0625 19.4473ZM20.25 21.9375C20.25 22.2474 19.998 22.5 19.6875 22.5C19.377 22.5 19.125 22.2474 19.125 21.9375V20.8125V8.4375V7.3125C19.125 7.00256 19.377 6.75 19.6875 6.75C19.998 6.75 20.25 7.00256 20.25 7.3125V7.875V21.375V21.9375ZM21.375 8.35762L27.5625 7.40588V21.8447L21.375 20.8929V8.35762ZM30.9375 22.5C30.9375 23.1204 30.4329 23.625 29.8125 23.625C29.1921 23.625 28.6875 23.1204 28.6875 22.5V6.75C28.6875 6.12956 29.1921 5.625 29.8125 5.625C30.4329 5.625 30.9375 6.12956 30.9375 6.75V22.5ZM32.0625 21.1039V8.14613C32.8888 8.90719 33.75 11.2354 33.75 14.625C33.75 18.0146 32.8888 20.3428 32.0625 21.1039Z" fill="#1E398F"/>
<path d="M3.375 4.5C3.375 4.8105 3.62644 5.0625 3.9375 5.0625C5.17838 5.0625 6.1875 6.07162 6.1875 7.3125C6.1875 7.623 6.43894 7.875 6.75 7.875C7.06106 7.875 7.3125 7.623 7.3125 7.3125C7.3125 6.07162 8.32162 5.0625 9.5625 5.0625C9.87356 5.0625 10.125 4.8105 10.125 4.5C10.125 4.1895 9.87356 3.9375 9.5625 3.9375C8.32162 3.9375 7.3125 2.92838 7.3125 1.6875C7.3125 1.377 7.06106 1.125 6.75 1.125C6.43894 1.125 6.1875 1.377 6.1875 1.6875C6.1875 2.92838 5.17838 3.9375 3.9375 3.9375C3.62644 3.9375 3.375 4.1895 3.375 4.5ZM6.75 3.55106C6.99975 3.92681 7.32319 4.25025 7.69894 4.5C7.32319 4.74975 6.99975 5.07319 6.75 5.44894C6.50025 5.07319 6.17681 4.74975 5.80106 4.5C6.17681 4.25025 6.50025 3.92681 6.75 3.55106Z" fill="#1E398F"/>
</svg>
