<svg width="36" height="36" viewBox="0 0 36 36" fill="none" xmlns="http://www.w3.org/2000/svg">
<path d="M34.875 34.1443V14.0625C34.875 13.7514 34.6236 13.5 34.3125 13.5H30.9375C30.6264 13.5 30.375 13.7514 30.375 14.0625V16.875H29.25V14.0625C29.25 13.7514 28.9986 13.5 28.6875 13.5H25.3125C25.0014 13.5 24.75 13.7514 24.75 14.0625V16.875H23.625V14.0625C23.625 13.7514 23.3736 13.5 23.0625 13.5H20.25V11.8125C20.25 11.8069 20.2466 11.8018 20.2466 11.7962C20.2449 11.7366 20.232 11.6781 20.2112 11.6207C20.2056 11.6055 20.2011 11.5909 20.1943 11.5762C20.1898 11.5661 20.1881 11.5554 20.1825 11.5453L16.3125 4.35825V3.375H20.25C20.5611 3.375 20.8125 3.12356 20.8125 2.8125V0.5625C20.8125 0.251438 20.5611 0 20.25 0H15.75C15.4389 0 15.1875 0.251438 15.1875 0.5625V2.8125V4.35825L11.3169 11.5464C11.3119 11.556 11.3102 11.5673 11.3051 11.5774C11.2984 11.592 11.2939 11.6061 11.2883 11.6212C11.2674 11.6781 11.2545 11.7371 11.2528 11.7968C11.2528 11.8018 11.25 11.8069 11.25 11.8125V20.8125V23.0625V31.2947C9.20644 31.5163 7.28381 31.8403 5.625 32.2627V30.375H9C9.2115 30.375 9.40556 30.2563 9.50175 30.0673C9.59738 29.8789 9.57938 29.6522 9.4545 29.4812L8.45437 28.1098C8.62087 28.0761 8.76656 27.9726 8.84531 27.8173C8.94094 27.6289 8.92294 27.4022 8.79806 27.2312L7.7985 25.8604C7.95544 25.8289 8.09381 25.7344 8.17538 25.5926C8.27606 25.4177 8.27494 25.2034 8.17312 25.029L7.31025 23.5502C7.39575 23.5013 7.46831 23.4304 7.51894 23.3426C7.61962 23.1677 7.6185 22.9534 7.51725 22.779L5.5485 19.404C5.34656 19.0581 4.77844 19.0581 4.57594 19.404L2.60719 22.779C2.50594 22.9534 2.50481 23.1677 2.6055 23.3426C2.65612 23.4309 2.72869 23.5018 2.81419 23.5502L1.95188 25.029C1.85006 25.2034 1.84894 25.4177 1.94963 25.5926C2.03119 25.7344 2.17013 25.8283 2.3265 25.8604L1.32694 27.2312C1.20206 27.4022 1.18406 27.6289 1.27969 27.8173C1.35844 27.9726 1.50469 28.0761 1.67063 28.1098L0.6705 29.4812C0.545625 29.6522 0.527625 29.8789 0.62325 30.0673C0.719438 30.2563 0.9135 30.375 1.125 30.375H4.5V32.5761C1.77412 33.4136 0 34.5617 0 36H1.125C1.125 34.3558 7.54481 32.0625 18 32.0625C28.4552 32.0625 34.875 34.3558 34.875 36H36C36 35.3143 35.5922 34.6956 34.875 34.1443ZM3.41662 24.75L4.07306 23.625H6.05194L6.70837 24.75H6.70331H3.42169H3.41662ZM3.708 25.875H6.417L7.23713 27H2.88787L3.708 25.875ZM5.0625 20.8035L6.05194 22.5H4.07306L5.0625 20.8035ZM3.05213 28.125H7.07288L7.89356 29.25H2.23144L3.05213 28.125ZM15.1875 28.125H16.3125V30.9375H15.1875V28.125ZM17.4375 30.9375V28.125H18V27H16.875H14.625H13.5V28.125H14.0625V30.9375H12.375V23.625H19.125V30.9375H17.4375ZM33.75 30.375H29.8125V29.25H33.75V30.375ZM12.375 21.375H19.125V22.5H12.375V21.375ZM23.625 22.5V23.625H20.25V23.0625V22.5H23.625ZM27 22.5V23.625H24.75V22.5H27ZM30.375 22.5V23.625H28.125V22.5H30.375ZM28.125 28.125V27H30.375V28.125H28.125ZM24.75 28.125V27H27V28.125H24.75ZM20.25 28.125V27H23.625V28.125H20.25ZM25.3125 24.75V25.875H23.0625V24.75H25.3125ZM21.9375 25.875H20.25V24.75H21.9375V25.875ZM26.4375 25.875V24.75H28.6875V25.875H26.4375ZM20.25 29.25H21.9375V30.375H20.25V29.25ZM23.0625 29.25H25.3125V30.375H23.0625V29.25ZM26.4375 29.25H28.6875V30.375H26.4375V29.25ZM33.75 28.125H31.5V27H33.75V28.125ZM33.75 25.875H29.8125V24.75H33.75V25.875ZM33.75 23.625H31.5V22.5H33.75V23.625ZM33.75 21.375H29.8125V20.25H33.75V21.375ZM28.6875 21.375H26.4375V20.25H28.6875V21.375ZM25.3125 21.375H23.0625V20.25H25.3125V21.375ZM21.9375 21.375H20.25V20.8125V20.25H21.9375V21.375ZM19.125 14.0625V20.25H12.375V12.375H19.125V14.0625ZM30.375 31.5V32.2627C29.1707 31.9562 27.8269 31.7014 26.3992 31.5H30.375ZM31.5 31.5H33.75V33.4541C33.1088 33.1318 32.3528 32.8382 31.5 32.5761V31.5ZM22.5 14.625V17.4375C22.5 17.7486 22.7514 18 23.0625 18H25.3125C25.6236 18 25.875 17.7486 25.875 17.4375V14.625H28.125V17.4375C28.125 17.7486 28.3764 18 28.6875 18H30.9375C31.2486 18 31.5 17.7486 31.5 17.4375V14.625H33.75V19.125H20.25V14.625H22.5ZM19.6875 2.25H16.3125V1.125H19.6875V2.25ZM15.75 5.68631L18.7459 11.25H12.7541L15.75 5.68631Z" fill="#1E398F"/>
<path d="M14.0625 18.5625H17.4375C17.7486 18.5625 18 18.3111 18 18V16.3125C18 15.0716 16.9909 14.0625 15.75 14.0625C14.5091 14.0625 13.5 15.0716 13.5 16.3125V18C13.5 18.3111 13.7514 18.5625 14.0625 18.5625ZM14.625 16.3125C14.625 15.6921 15.1296 15.1875 15.75 15.1875C16.3699 15.1875 16.875 15.6921 16.875 16.3125V17.4375H14.625V16.3125Z" fill="#1E398F"/>
<path d="M5.0625 7.875C6.61331 7.875 7.875 6.61331 7.875 5.0625C7.875 3.51169 6.61331 2.25 5.0625 2.25C3.51169 2.25 2.25 3.51169 2.25 5.0625C2.25 6.61331 3.51169 7.875 5.0625 7.875ZM5.0625 3.375C5.99288 3.375 6.75 4.13212 6.75 5.0625C6.75 5.99288 5.99288 6.75 5.0625 6.75C4.13212 6.75 3.375 5.99288 3.375 5.0625C3.375 4.13212 4.13212 3.375 5.0625 3.375Z" fill="#1E398F"/>
<path d="M5.625 0H4.5V1.125H5.625V0Z" fill="#1E398F"/>
<path d="M5.625 9H4.5V10.125H5.625V9Z" fill="#1E398F"/>
<path d="M10.125 4.5H9V5.625H10.125V4.5Z" fill="#1E398F"/>
<path d="M1.125 4.5H0V5.625H1.125V4.5Z" fill="#1E398F"/>
<path d="M8.24446 7.44878L7.44897 8.24426L8.24446 9.03975L9.03995 8.24426L8.24446 7.44878Z" fill="#1E398F"/>
<path d="M1.88045 1.08476L1.08496 1.88025L1.88045 2.67574L2.67594 1.88025L1.88045 1.08476Z" fill="#1E398F"/>
<path d="M1.88033 7.44902L1.08484 8.24451L1.88033 9.03999L2.67581 8.24451L1.88033 7.44902Z" fill="#1E398F"/>
<path d="M8.24458 1.08501L7.4491 1.88049L8.24458 2.67598L9.04007 1.88049L8.24458 1.08501Z" fill="#1E398F"/>
<path d="M24.75 7.875H35.4375C35.7486 7.875 36 7.62356 36 7.3125C36 5.45119 34.4863 3.9375 32.625 3.9375C32.3443 3.9375 32.0619 3.97519 31.7812 4.05C30.9476 3.25969 29.8395 2.8125 28.6875 2.8125C26.2063 2.8125 24.1875 4.83131 24.1875 7.3125C24.1875 7.62356 24.4389 7.875 24.75 7.875ZM28.6875 3.9375C29.6432 3.9375 30.5601 4.34925 31.2024 5.06756C31.3577 5.2425 31.6052 5.30213 31.8223 5.21831C33.1644 4.70363 34.4903 5.53669 34.8036 6.75056H25.3592C25.6275 5.15588 27.018 3.9375 28.6875 3.9375Z" fill="#1E398F"/>
</svg>
