<svg width="36" height="36" viewBox="0 0 36 36" fill="none" xmlns="http://www.w3.org/2000/svg">
<path d="M34.3125 1.125H1.6875C1.68412 1.125 1.68131 1.12669 1.67794 1.12669C1.61719 1.12781 1.55531 1.13681 1.49569 1.15875C1.49062 1.16044 1.48612 1.16437 1.48106 1.16662C1.46362 1.17337 1.44956 1.18463 1.43325 1.19306C1.38994 1.21556 1.35 1.24088 1.314 1.27294C1.29769 1.28813 1.28363 1.30388 1.26844 1.32075C1.23863 1.35563 1.21387 1.39275 1.1925 1.43325C1.18294 1.45238 1.17225 1.46925 1.16494 1.4895C1.14131 1.55194 1.125 1.61775 1.125 1.6875V5.0625V12.9375V34.3125C1.125 34.6236 1.37644 34.875 1.6875 34.875H9.5625H26.4375H34.3125C34.6236 34.875 34.875 34.6236 34.875 34.3125V12.9375V5.0625V1.6875C34.875 1.37644 34.6236 1.125 34.3125 1.125ZM33.75 31.5H27V13.5H33.75V31.5ZM26.4375 12.375C26.1264 12.375 25.875 12.6264 25.875 12.9375V27.5625H10.125V12.9375C10.125 12.6264 9.87356 12.375 9.5625 12.375H2.25V5.625H33.75V12.375H26.4375ZM2.25 13.5H9V31.5H2.25V13.5ZM30.9375 3.70462L29.4829 2.25H30.9375V3.70462ZM32.0625 3.24113L33.1116 4.5H32.0625V3.24113ZM30.1421 4.5H28.6875V3.04538L30.1421 4.5ZM27.5625 3.70462L26.1079 2.25H27.5625V3.70462ZM26.7671 4.5H25.3125V3.04538L26.7671 4.5ZM24.1875 3.70462L22.7329 2.25H24.1875V3.70462ZM23.3921 4.5H21.9375V3.04538L23.3921 4.5ZM20.8125 3.70462L19.3579 2.25H20.8125V3.70462ZM20.0171 4.5H18.5625V3.04538L20.0171 4.5ZM17.4375 3.70462L15.9829 2.25H17.4375V3.70462ZM16.6421 4.5H15.1875V3.04538L16.6421 4.5ZM14.0625 3.70462L12.6079 2.25H14.0625V3.70462ZM13.2671 4.5H11.8125V3.04538L13.2671 4.5ZM10.6875 3.70462L9.23287 2.25H10.6875V3.70462ZM9.89213 4.5H8.4375V3.04538L9.89213 4.5ZM7.3125 3.70462L5.85787 2.25H7.3125V3.70462ZM6.51713 4.5H5.0625V3.04538L6.51713 4.5ZM3.9375 3.50887L2.88844 2.25H3.9375V3.50887ZM3.29906 4.5H2.25V3.24113L3.29906 4.5ZM33.75 3.50887L32.7009 2.25H33.75V3.50887ZM2.25 32.625H9V33.75H2.25V32.625ZM10.125 28.6875H25.875V33.75H10.125V28.6875ZM27 33.75V32.625H33.75V33.75H27Z" fill="#1E398F"/>
<path d="M5.625 19.125C6.86588 19.125 7.875 18.1159 7.875 16.875C7.875 15.6341 6.86588 14.625 5.625 14.625C4.38412 14.625 3.375 15.6341 3.375 16.875C3.375 18.1159 4.38412 19.125 5.625 19.125ZM5.625 15.75C6.24544 15.75 6.75 16.2546 6.75 16.875C6.75 17.4954 6.24544 18 5.625 18C5.00456 18 4.5 17.4954 4.5 16.875C4.5 16.2546 5.00456 15.75 5.625 15.75Z" fill="#1E398F"/>
<path d="M5.625 20.25C4.38412 20.25 3.375 21.2591 3.375 22.5C3.375 23.7409 4.38412 24.75 5.625 24.75C6.86588 24.75 7.875 23.7409 7.875 22.5C7.875 21.2591 6.86588 20.25 5.625 20.25ZM5.625 23.625C5.00456 23.625 4.5 23.1204 4.5 22.5C4.5 21.8796 5.00456 21.375 5.625 21.375C6.24544 21.375 6.75 21.8796 6.75 22.5C6.75 23.1204 6.24544 23.625 5.625 23.625Z" fill="#1E398F"/>
<path d="M5.625 25.875C4.38412 25.875 3.375 26.8841 3.375 28.125C3.375 29.3659 4.38412 30.375 5.625 30.375C6.86588 30.375 7.875 29.3659 7.875 28.125C7.875 26.8841 6.86588 25.875 5.625 25.875ZM5.625 29.25C5.00456 29.25 4.5 28.7454 4.5 28.125C4.5 27.5046 5.00456 27 5.625 27C6.24544 27 6.75 27.5046 6.75 28.125C6.75 28.7454 6.24544 29.25 5.625 29.25Z" fill="#1E398F"/>
<path d="M30.375 19.125C31.6159 19.125 32.625 18.1159 32.625 16.875C32.625 15.6341 31.6159 14.625 30.375 14.625C29.1341 14.625 28.125 15.6341 28.125 16.875C28.125 18.1159 29.1341 19.125 30.375 19.125ZM30.375 15.75C30.9954 15.75 31.5 16.2546 31.5 16.875C31.5 17.4954 30.9954 18 30.375 18C29.7546 18 29.25 17.4954 29.25 16.875C29.25 16.2546 29.7546 15.75 30.375 15.75Z" fill="#1E398F"/>
<path d="M30.375 24.75C31.6159 24.75 32.625 23.7409 32.625 22.5C32.625 21.2591 31.6159 20.25 30.375 20.25C29.1341 20.25 28.125 21.2591 28.125 22.5C28.125 23.7409 29.1341 24.75 30.375 24.75ZM30.375 21.375C30.9954 21.375 31.5 21.8796 31.5 22.5C31.5 23.1204 30.9954 23.625 30.375 23.625C29.7546 23.625 29.25 23.1204 29.25 22.5C29.25 21.8796 29.7546 21.375 30.375 21.375Z" fill="#1E398F"/>
<path d="M30.375 30.375C31.6159 30.375 32.625 29.3659 32.625 28.125C32.625 26.8841 31.6159 25.875 30.375 25.875C29.1341 25.875 28.125 26.8841 28.125 28.125C28.125 29.3659 29.1341 30.375 30.375 30.375ZM30.375 27C30.9954 27 31.5 27.5046 31.5 28.125C31.5 28.7454 30.9954 29.25 30.375 29.25C29.7546 29.25 29.25 28.7454 29.25 28.125C29.25 27.5046 29.7546 27 30.375 27Z" fill="#1E398F"/>
<path d="M21.6951 15.8501C21.5438 15.7455 21.3508 15.7202 21.177 15.786L16.677 17.4735C16.4582 17.5556 16.3125 17.7654 16.3125 18V23.166C16.1359 23.103 15.948 23.0625 15.75 23.0625C14.8196 23.0625 14.0625 23.8196 14.0625 24.75C14.0625 25.6804 14.8196 26.4375 15.75 26.4375C16.6804 26.4375 17.4375 25.6804 17.4375 24.75V18.3898L20.8125 17.1242V20.916C20.6359 20.853 20.448 20.8125 20.25 20.8125C19.3196 20.8125 18.5625 21.5696 18.5625 22.5C18.5625 23.4304 19.3196 24.1875 20.25 24.1875C21.1804 24.1875 21.9375 23.4304 21.9375 22.5V16.3125C21.9375 16.128 21.8469 15.9553 21.6951 15.8501ZM15.75 25.3125C15.4395 25.3125 15.1875 25.0605 15.1875 24.75C15.1875 24.4395 15.4395 24.1875 15.75 24.1875C16.0605 24.1875 16.3125 24.4395 16.3125 24.75C16.3125 25.0605 16.0605 25.3125 15.75 25.3125ZM20.25 23.0625C19.9395 23.0625 19.6875 22.8105 19.6875 22.5C19.6875 22.1895 19.9395 21.9375 20.25 21.9375C20.5605 21.9375 20.8125 22.1895 20.8125 22.5C20.8125 22.8105 20.5605 23.0625 20.25 23.0625Z" fill="#1E398F"/>
<path d="M27.2514 7.93401L25.0014 6.80901C24.8265 6.72239 24.6201 6.73082 24.4541 6.83376C24.2882 6.9367 24.1875 7.11726 24.1875 7.31245V9.73176C23.931 9.62657 23.6469 9.56245 23.3438 9.56245C22.2581 9.56245 21.375 10.3196 21.375 11.2499C21.375 12.1803 22.2581 12.9374 23.3438 12.9374C24.4294 12.9374 25.3125 12.1803 25.3125 11.2499V8.22257L26.6664 8.89982L27.1648 9.39764L27.9602 8.60226L27.3977 8.03976C27.3549 7.99701 27.3054 7.96101 27.2514 7.93401ZM23.3438 11.8124C22.8943 11.8124 22.5 11.5492 22.5 11.2499C22.5 10.9507 22.8943 10.6874 23.3438 10.6874C23.7932 10.6874 24.1875 10.9507 24.1875 11.2499C24.1875 11.5492 23.7932 11.8124 23.3438 11.8124Z" fill="#1E398F"/>
<path d="M15.1875 14.0625V11.0351L16.5414 11.7124L17.0398 12.2102L17.8352 11.4148L17.2727 10.8523C17.2299 10.8096 17.1804 10.7736 17.1264 10.7466L14.8764 9.62158C14.7021 9.53496 14.4951 9.54283 14.3291 9.64633C14.1638 9.74927 14.0625 9.92983 14.0625 10.125V12.5443C13.806 12.4391 13.5219 12.375 13.2188 12.375C12.1331 12.375 11.25 13.1321 11.25 14.0625C11.25 14.9929 12.1331 15.75 13.2188 15.75C14.3044 15.75 15.1875 14.9929 15.1875 14.0625ZM13.2188 14.625C12.7693 14.625 12.375 14.3618 12.375 14.0625C12.375 13.7633 12.7693 13.5 13.2188 13.5C13.6682 13.5 14.0625 13.7633 14.0625 14.0625C14.0625 14.3618 13.6682 14.625 13.2188 14.625Z" fill="#1E398F"/>
<path d="M19.6875 13.5H18.5625V14.625H19.6875V13.5Z" fill="#1E398F"/>
<path d="M24.1875 14.625H23.0625V15.75H24.1875V14.625Z" fill="#1E398F"/>
<path d="M15.1875 16.3125H14.0625V17.4375H15.1875V16.3125Z" fill="#1E398F"/>
</svg>
