<svg width="36" height="36" viewBox="0 0 36 36" fill="none" xmlns="http://www.w3.org/2000/svg">
<path d="M1.6875 5.0625C2.92838 5.0625 3.9375 6.07162 3.9375 7.3125C3.9375 7.623 4.1895 7.875 4.5 7.875C4.8105 7.875 5.0625 7.623 5.0625 7.3125C5.0625 6.07162 6.07162 5.0625 7.3125 5.0625C7.623 5.0625 7.875 4.8105 7.875 4.5C7.875 4.1895 7.623 3.9375 7.3125 3.9375C6.07162 3.9375 5.0625 2.92838 5.0625 1.6875C5.0625 1.377 4.8105 1.125 4.5 1.125C4.1895 1.125 3.9375 1.377 3.9375 1.6875C3.9375 2.92838 2.92838 3.9375 1.6875 3.9375C1.377 3.9375 1.125 4.1895 1.125 4.5C1.125 4.8105 1.377 5.0625 1.6875 5.0625ZM4.5 3.55106C4.74975 3.92681 5.07319 4.25025 5.44894 4.5C5.07319 4.74975 4.74975 5.07319 4.5 5.44894C4.25025 5.07319 3.92681 4.74975 3.55106 4.5C3.92681 4.25025 4.25025 3.92681 4.5 3.55106Z" fill="#1E398F"/>
<path d="M31.8274 27.972C31.7627 27.9467 31.6991 27.918 31.6372 27.8865C31.5894 27.8629 31.5427 27.837 31.4972 27.81C31.4173 27.7622 31.338 27.7121 31.2638 27.6536C31.2587 27.6497 31.2536 27.6452 31.2486 27.6412C32.886 25.0993 33.75 22.1653 33.75 19.125C33.75 10.629 26.9871 3.68719 18.5625 3.38906V1.125H17.4375V3.38906C9.01294 3.68719 2.25 10.629 2.25 19.125C2.25 27.8094 9.31556 34.875 18 34.875C22.1428 34.875 26.0106 33.3 28.9648 30.4256C28.9884 30.4689 29.0149 30.5111 29.0357 30.5561C29.0509 30.5887 29.0683 30.6202 29.0818 30.654C29.1279 30.7671 29.1639 30.8846 29.1909 31.0056C29.1983 31.0371 29.2033 31.0686 29.2089 31.1001C29.2331 31.2306 29.25 31.3633 29.25 31.5C29.25 31.8105 29.502 32.0625 29.8125 32.0625C30.123 32.0625 30.375 31.8105 30.375 31.5C30.375 30.2591 31.3841 29.25 32.625 29.25C32.9355 29.25 33.1875 28.998 33.1875 28.6875C33.1875 28.377 32.9355 28.125 32.625 28.125C32.4827 28.125 32.3443 28.1081 32.2087 28.0828C32.1592 28.0732 32.112 28.0581 32.0636 28.0457C31.9832 28.0249 31.9044 28.0013 31.8274 27.972ZM18 33.75C9.936 33.75 3.375 27.189 3.375 19.125C3.375 11.061 9.936 4.5 18 4.5C26.064 4.5 32.625 11.061 32.625 19.125C32.625 21.8031 31.8977 24.3889 30.5252 26.6625C30.4324 26.4167 30.375 26.1529 30.375 25.875C30.375 25.5645 30.123 25.3125 29.8125 25.3125C29.502 25.3125 29.25 25.5645 29.25 25.875C29.25 27.1159 28.2409 28.125 27 28.125C26.6895 28.125 26.4375 28.377 26.4375 28.6875C26.4375 28.998 26.6895 29.25 27 29.25C27.4399 29.25 27.8477 29.3816 28.1948 29.601C25.4498 32.2796 21.8537 33.75 18 33.75ZM30.096 28.0929C30.1078 28.1064 30.1213 28.1171 30.1331 28.1301C30.2085 28.2133 30.2867 28.2915 30.3699 28.3669C30.4341 28.4254 30.5021 28.4777 30.5702 28.5306C30.6354 28.5812 30.6923 28.6414 30.7614 28.6869C30.6304 28.7741 30.5151 28.881 30.3975 28.9851C30.3469 29.0301 30.2884 29.0655 30.2411 29.1133C30.0819 29.2725 29.9379 29.4474 29.8131 29.6359C29.7686 29.5695 29.7107 29.5144 29.6617 29.4514C29.5886 29.3563 29.5206 29.2584 29.4368 29.1707C29.4334 29.1673 29.4289 29.1662 29.4255 29.1628C29.2551 28.9862 29.0694 28.8236 28.8647 28.6875C29.2404 28.4377 29.5633 28.1143 29.8136 27.7386C29.8907 27.8539 29.9863 27.9546 30.0763 28.0592C30.0831 28.0704 30.087 28.0828 30.096 28.0929Z" fill="#1E398F"/>
<path d="M20.8125 10.6875V9.5625C20.8125 8.01169 19.5508 6.75 18 6.75C16.4492 6.75 15.1875 8.01169 15.1875 9.5625V10.6875C15.1875 12.2383 16.4492 13.5 18 13.5C19.5508 13.5 20.8125 12.2383 20.8125 10.6875ZM19.6875 10.6875C19.6875 11.6179 18.9304 12.375 18 12.375C17.0696 12.375 16.3125 11.6179 16.3125 10.6875V9.5625C16.3125 8.63212 17.0696 7.875 18 7.875C18.9304 7.875 19.6875 8.63212 19.6875 9.5625V10.6875Z" fill="#1E398F"/>
<path d="M14.625 16.875H12.7446L13.9658 15.6532C14.391 15.2285 14.625 14.6632 14.625 14.0625C14.625 13.4617 14.391 12.8964 13.9663 12.4717C13.1164 11.6212 11.6337 11.6212 10.7843 12.4717L5.72178 17.5342C5.07603 18.18 4.88421 19.1424 5.23409 19.9862C5.5834 20.8299 6.39903 21.375 7.31253 21.375H14.625C15.8659 21.375 16.875 20.3659 16.875 19.125C16.875 17.8841 15.8659 16.875 14.625 16.875ZM14.625 20.25H7.31253C6.85578 20.25 6.44796 19.9772 6.27303 19.5553C6.09809 19.1334 6.19371 18.6525 6.51715 18.3296L11.5797 13.2671C11.7923 13.0545 12.0747 12.9375 12.375 12.9375C12.6754 12.9375 12.9578 13.0545 13.1704 13.2671C13.383 13.4797 13.5 13.7621 13.5 14.0625C13.5 14.3629 13.383 14.6452 13.1704 14.8579L10.989 17.0398C10.8282 17.2007 10.7798 17.4425 10.867 17.6529C10.9542 17.8633 11.1589 18 11.3867 18H14.625C15.2455 18 15.75 18.5045 15.75 19.125C15.75 19.7454 15.2455 20.25 14.625 20.25Z" fill="#1E398F"/>
<path d="M30.7659 19.9862C31.1158 19.1424 30.924 18.18 30.2782 17.5342L25.2157 12.4717C24.3658 11.6212 22.8831 11.6212 22.0337 12.4717C21.609 12.8964 21.375 13.4617 21.375 14.0625C21.375 14.6632 21.609 15.2285 22.0343 15.6532L23.2554 16.875H21.375C20.1341 16.875 19.125 17.8841 19.125 19.125V28.6875C19.125 29.9284 20.1341 30.9375 21.375 30.9375C22.6159 30.9375 23.625 29.9284 23.625 28.6875V21.375H28.6875C29.601 21.375 30.4166 20.8299 30.7659 19.9862ZM23.0625 20.25C22.752 20.25 22.5 20.502 22.5 20.8125V28.6875C22.5 29.3079 21.9954 29.8125 21.375 29.8125C20.7546 29.8125 20.25 29.3079 20.25 28.6875V19.125C20.25 18.5045 20.7546 18 21.375 18H24.6133C24.8406 18 25.0459 17.8627 25.1331 17.6529C25.2202 17.4431 25.1719 17.2007 25.011 17.0398L22.8296 14.8579C22.617 14.6452 22.5 14.3629 22.5 14.0625C22.5 13.7621 22.617 13.4797 22.8296 13.2671C23.2543 12.8419 23.9951 12.8419 24.4204 13.2671L29.4829 18.3296C29.8057 18.6519 29.9014 19.1334 29.727 19.5553C29.5526 19.9772 29.1442 20.25 28.6875 20.25H23.0625Z" fill="#1E398F"/>
<path d="M7.875 22.5H6.75V23.625H7.875V22.5Z" fill="#1E398F"/>
<path d="M10.125 22.5H9V23.625H10.125V22.5Z" fill="#1E398F"/>
<path d="M12.375 22.5H11.25V23.625H12.375V22.5Z" fill="#1E398F"/>
<path d="M14.625 22.5H13.5V23.625H14.625V22.5Z" fill="#1E398F"/>
<path d="M10.125 24.75H9V25.875H10.125V24.75Z" fill="#1E398F"/>
<path d="M12.375 24.75H11.25V25.875H12.375V24.75Z" fill="#1E398F"/>
<path d="M14.625 24.75H13.5V25.875H14.625V24.75Z" fill="#1E398F"/>
<path d="M12.375 27H11.25V28.125H12.375V27Z" fill="#1E398F"/>
<path d="M14.625 27H13.5V28.125H14.625V27Z" fill="#1E398F"/>
<path d="M14.625 29.25H13.5V30.375H14.625V29.25Z" fill="#1E398F"/>
</svg>
