<svg width="20" height="20" viewBox="0 0 20 20" fill="none" xmlns="http://www.w3.org/2000/svg">
<path d="M1.32515 10.7999H9.32515V18.7999C9.32515 19.2415 9.68355 19.5999 10.1251 19.5999C10.5667 19.5999 10.9251 19.2415 10.9251 18.7999V10.7999H18.9251C19.3667 10.7999 19.7251 10.4415 19.7251 9.9999C19.7251 9.5583 19.3667 9.1999 18.9251 9.1999H10.9251V1.1999C10.9251 0.758302 10.5667 0.399902 10.1251 0.399902C9.68355 0.399902 9.32515 0.758302 9.32515 1.1999V9.1999H1.32515C0.883546 9.1999 0.525146 9.5583 0.525146 9.9999C0.525146 10.4415 0.883546 10.7999 1.32515 10.7999Z" fill="black"/>
</svg>
